<svg xmlns="http://www.w3.org/2000/svg" viewBox="0 0 100 100"><defs><style>.cls-1{fill:gray;}.cls-2{fill:#fff;}</style></defs><title>day</title><g id="sun"><path id="sun-outer" class="cls-1" d="M93.82,47.34,77,38.56v.38c-.18-.49-.38-1-.59-1.45l.52.51,6-18s1-5-4-4L61.31,21.87l-.69-.32L51.9,4.21c-3-4.47-6,0-6,0L37.57,21.06q-.77.3-1.5.63L19,16c-5-1-4,4-4,4l5.73,17.19c-.28.63-.55,1.27-.79,1.93L4.18,47.34C0,50.25,4.28,53,4.28,53l15.49,7.41c.28.8.59,1.58.93,2.35L15,79.87s-1,5,4,4l16.91-5.64c.53.25,1.07.48,1.61.69l8.42,16.94s3,4.47,6,0l8.77-17.44.81-.38,17.44,5.82c5,1,4-4,4-4l-6-18-.41.41q.27-.64.51-1.29l16.7-8S98,50.25,93.82,47.34ZM49,74A24,24,0,1,1,73,50,24,24,0,0,1,49,74Z"/></g><g id="sun-2" data-name="sun"><circle id="sun-inner" class="cls-2" cx="49" cy="50" r="18"/></g></svg>