<svg xmlns="http://www.w3.org/2000/svg" viewBox="0 0 100 100"><defs><style>.cls-1{fill:gray;}.cls-2{fill:#fff;}</style></defs><title>headphones</title><g id="ears"><path class="cls-1" d="M34.94,55H30.47A12.47,12.47,0,0,0,18,67.47V78.53A12.47,12.47,0,0,0,30.47,91h4.47A3.06,3.06,0,0,0,38,87.94V58.06A3.06,3.06,0,0,0,34.94,55Z"/><path class="cls-1" d="M69.53,55H65.06A3.06,3.06,0,0,0,62,58.06V87.94A3.06,3.06,0,0,0,65.06,91h4.47A12.47,12.47,0,0,0,82,78.53V67.47A12.47,12.47,0,0,0,69.53,55Z"/></g><g id="headband"><path class="cls-2" d="M96.15,46C92.31,32.16,81.08,7.28,50,8,19.18,8.72,8.39,32.56,4.76,46A56.91,56.91,0,0,0,3,55V75.22A3.78,3.78,0,0,0,6.78,79H8.22A3.78,3.78,0,0,0,12,75.22V55s3-38,38-38S89,55,89,55V75.22A3.78,3.78,0,0,0,92.78,79h1.44A3.78,3.78,0,0,0,98,75.22V55A60.73,60.73,0,0,0,96.15,46Z"/></g></svg>