<svg xmlns="http://www.w3.org/2000/svg" viewBox="0 0 100 100"><defs><style>.cls-1{fill:gray;}.cls-2{fill:#fff;}</style></defs><title>home</title><g id="home"><path id="home-2" data-name="home" class="cls-1" d="M50,25.6,11.52,58.44V91a2.19,2.19,0,0,0,2.19,2.19H36.53A2.19,2.19,0,0,0,38.72,91V68.5a2.56,2.56,0,0,1,2.56-2.56H57.73A2.56,2.56,0,0,1,60.3,68.5V91a2.19,2.19,0,0,0,2.19,2.19H85.31A2.19,2.19,0,0,0,87.5,91V58.44Z"/></g><g id="roof"><path id="roof-2" data-name="roof" class="cls-2" d="M96.46,47.05l-9-8.32h0v-24a3.22,3.22,0,0,0-3.22-3.22H73.84a3.22,3.22,0,0,0-3.22,3.22v8.42L54.43,8.23a5.57,5.57,0,0,0-3.57-1.46A5.62,5.62,0,0,0,46,8L3,44.22a5.64,5.64,0,0,0-.68,7.93h0a5.64,5.64,0,0,0,7.93.68L49.93,19.39,88.82,55.32a5.63,5.63,0,1,0,7.64-8.27Z"/></g></svg>