<svg xmlns="http://www.w3.org/2000/svg" viewBox="0 0 100 100"><defs><style>.cls-1{fill:#fff;}.cls-2{fill:gray;}</style></defs><title>night</title><g id="moon"><path id="moon-2" data-name="moon" class="cls-1" d="M45,31s3-3,0-4c-2-.24-19.74-2.11-32.25,11.28A37.52,37.52,0,0,0,3,62,36.47,36.47,0,0,0,39,97s18-1,27-13a2.19,2.19,0,0,0-1-3c-1.5.34-12.77,2.64-22.63-5.08C31.95,67.77,32,55.37,32,54a25.69,25.69,0,0,1,1.5-9.25A27.25,27.25,0,0,1,45,31Z"/></g><g id="moon-3" data-name="moon"><g id="stars"><polygon id="star2" class="cls-2" points="88 37 83 27 78 36 68 41 78 46 83 56 88 47 98 42 88 37"/><polygon id="star1" class="cls-2" points="63.33 9.67 60 3 56.67 9 50 12.33 56.67 15.67 60 22.33 63.33 16.33 70 13 63.33 9.67"/></g></g></svg>