<svg xmlns="http://www.w3.org/2000/svg" viewBox="0 0 100 100"><defs><style>.cls-1{fill:gray;}.cls-2{fill:#fff;}</style></defs><title>ruletka</title><g id="ruletka"><ellipse id="ruletka-2" data-name="ruletka" class="cls-1" cx="50" cy="50" rx="46.26" ry="47"/></g><g id="ruletka-outer"><g id="ruletka-outer-2" data-name="ruletka-outer"><path class="cls-2" d="M67.5,50a3,3,0,0,0-5.58-1.5H57.35a7.51,7.51,0,0,0-5.85-5.85V38.58a3,3,0,1,0-3,0v4.07a7.51,7.51,0,0,0-5.85,5.85H38.08a3,3,0,1,0,0,3h4.57a7.51,7.51,0,0,0,5.85,5.85v4.07a3,3,0,1,0,3,0V57.35a7.51,7.51,0,0,0,5.85-5.85h4.57A3,3,0,0,0,67.5,50Z"/><path class="cls-2" d="M91,66.92A45.38,45.38,0,0,0,67.48,8.65l-.07,0h0A43.54,43.54,0,0,0,50,5C25.54,5,5.71,25.15,5.71,50S25.54,95,50,95A44.3,44.3,0,0,0,90.83,67.47l.31-.51Zm-43.18,8L45.19,92.72a41.53,41.53,0,0,1-13.35-3.87l7.51-16.23A24.84,24.84,0,0,0,47.86,74.9ZM54,74.67a24.81,24.81,0,0,0,5.21-1.44l10.3,14.91A41.54,41.54,0,0,1,54.93,92.7ZM50,71A21,21,0,1,1,71,50,21,21,0,0,1,50,71ZM25.2,46.91,7.87,46a43.31,43.31,0,0,1,2.76-11.79l16.25,6.26A24.84,24.84,0,0,0,25.2,46.91Zm0,6.36a24.85,24.85,0,0,0,1.06,4.64L11.35,67.51A43.22,43.22,0,0,1,8.08,55.84ZM45.9,25.34a24.81,24.81,0,0,0-5,1.36L30.1,12A41.57,41.57,0,0,1,43.23,7.55Zm29,22.38a24.85,24.85,0,0,0-1.81-7.32L87.9,30.86A43.22,43.22,0,0,1,92,45.14Zm-.23,6.37L92,55a43.27,43.27,0,0,1-2.81,11.2l-16-6.8A24.81,24.81,0,0,0,74.66,54.08Zm7.9-31.55L69.88,34.84a25.13,25.13,0,0,0-5.46-5.26l10.5-14.33A42.83,42.83,0,0,1,82.56,22.53ZM59,26.69a24.86,24.86,0,0,0-7-1.6l.9-18a41.55,41.55,0,0,1,13.62,3.31Zm-37-9,13.3,12a25.13,25.13,0,0,0-5.43,5.36L15.1,25.68A43,43,0,0,1,22,17.73ZM16.31,76,29.05,63.64a25.12,25.12,0,0,0,5.07,5.67L23.64,83.63A42.91,42.91,0,0,1,16.31,76Zm61.36,6.51L64.83,70.13a25.13,25.13,0,0,0,5.36-5.39l14.49,9.9A43,43,0,0,1,77.67,82.52Z"/></g></g></svg>