<svg xmlns="http://www.w3.org/2000/svg" viewBox="0 0 100 100"><defs><style>.cls-1{fill:gray;}</style></defs><title>twitter</title><g id="twitter"><path id="bird" class="cls-1" d="M96.51,20a38.35,38.35,0,0,1-11,3A19.24,19.24,0,0,0,93.92,12.4a38.41,38.41,0,0,1-12.18,4.66A19.2,19.2,0,0,0,49,34.56a54.47,54.47,0,0,1-39.55-20,19.21,19.21,0,0,0,5.94,25.62,19.11,19.11,0,0,1-8.69-2.4c0,.08,0,.16,0,.24A19.2,19.2,0,0,0,22.13,56.78a19.23,19.23,0,0,1-8.66.33A19.2,19.2,0,0,0,31.39,70.43,38.49,38.49,0,0,1,7.56,78.65,39,39,0,0,1,3,78.38,54.3,54.3,0,0,0,32.4,87C67.69,87,87,57.76,87,32.41q0-1.25-.06-2.48A39,39,0,0,0,96.51,20Z"/></g></svg>